# xmcd CD database file
#
# Track frame offsets:
#	150
#	14162
#	33220
#	54147
#	68910
#	84112
#	99802
#	117682
#	134182
#	149560
#
# Disc length: 2279 seconds
#
# Revision: 0
# Processed by: cddbd v1.5PL3 Copyright (c) Steve Scherf et al.
# Submitted via: CDex 1.50
#
DISCID=8a08e50a
DTITLE=おニャン子クラブ - 夢カタログ
DYEAR=1986
DGENRE=JPop
TTITLE0=およしになってねTEACHER
TTITLE1=星座占いで瞳を閉じて
TTITLE2=シーサイド・セッション
TTITLE3=好きになってもくれない
TTITLE4=LINDA
TTITLE5=アレレレ
TTITLE6=恋愛御見舞申し上げます
TTITLE7=アンブレラ・エンジェル
TTITLE8=窓から見てるP･T･A
TTITLE9=夢の花束
EXTD=YEAR: 1986/03/10
EXTT0=
EXTT1=
EXTT2=
EXTT3=
EXTT4=
EXTT5=
EXTT6=
EXTT7=
EXTT8=
EXTT9=
PLAYORDER=
